<svg xmlns="http://www.w3.org/2000/svg" viewBox="0 0 64 64">
  <rect width="64" height="64" rx="14" fill="#F4EFE4"/>
  <!-- half-sun -->
  <path d="M14 36 a18 18 0 0 1 36 0" fill="#E8895E"/>
  <!-- sun rays -->
  <g stroke="#E8895E" stroke-width="2.4" stroke-linecap="round">
    <line x1="32" y1="8"  x2="32" y2="14"/>
    <line x1="13" y1="17" x2="17" y2="21"/>
    <line x1="51" y1="17" x2="47" y2="21"/>
    <line x1="6"  y1="36" x2="11" y2="36"/>
    <line x1="58" y1="36" x2="53" y2="36"/>
  </g>
  <!-- wave -->
  <path d="M4 46 C 14 40, 22 52, 32 46 S 50 40, 60 46 L 60 58 L 4 58 Z" fill="#5A9FB5"/>
  <path d="M4 52 C 14 46, 22 58, 32 52 S 50 46, 60 52" fill="none" stroke="#1F3F4D" stroke-width="1.6" stroke-linecap="round" opacity="0.35"/>
</svg>
